<?xml version="1.0" encoding="utf-8"?>
<!-- Generator: Adobe Illustrator 27.0.0, SVG Export Plug-In . SVG Version: 6.00 Build 0)  -->
<svg version="1.1" id="Layer_1" xmlns="http://www.w3.org/2000/svg" xmlns:xlink="http://www.w3.org/1999/xlink" x="0px" y="0px"
	 width="175px" height="175px" viewBox="0 0 175 175" style="enable-background:new 0 0 175 175;" xml:space="preserve">
<style type="text/css">
	.st0{fill:#74C6BE;}
	
		.st1{fill:none;stroke:#000000;stroke-width:3.2058;stroke-linecap:round;stroke-linejoin:round;stroke-miterlimit:10;stroke-dasharray:3.562,8.905;}
	.st2{fill:#FFFFFF;stroke:#231F20;stroke-width:3.2058;stroke-miterlimit:10;}
	.st3{fill:none;stroke:#231F20;stroke-width:3.2058;stroke-linecap:round;stroke-linejoin:round;stroke-miterlimit:10;}
	.st4{fill:#FFFFFF;}
	.st5{fill:#5D6AB0;}
	.st6{fill:#FFFFFF;stroke:#000000;stroke-width:3.2058;stroke-linecap:round;stroke-linejoin:round;stroke-miterlimit:10;}
</style>
<g>
	<path id="Path_10792_00000088822350173586888120000015323358497110019999_" class="st0" d="M59.4,20.5c-11.7,6.4-23.7,17-30.4,27
		C19.7,62,14.9,78.2,15.1,94.1c0.6,24.2,13.3,45.6,34.5,58.3c21.5,12.3,49,14.2,74.9,5.5c17.5-6.1,37.3-16.6,45-33.4
		c3.8-8.3,3.8-17.5,1-25.4c-4.1-11.8-12.3-17.4-21.4-25c-6.4-5.3-12.2-11.1-17.4-17.5c-11.1-13.4-24.2-36.1-43.3-40.7
		c-7.9-1.9-16.5-1-24.4,2.5C62.4,18.9,60.9,19.7,59.4,20.5"/>
	<path id="Path_10792_00000009562471010265312160000015369953536125149830_" class="st1" d="M52.6,17.2"/>
	<path id="Path_10792_00000135665914005136619980000004510827841118755203_" class="st1" d="M52,9.2c-12.2,5.3-25.1,14.9-32.6,24.3
		C12.1,43.1,6.8,53.6,4,64.5"/>
	<circle class="st2" cx="161.6" cy="159.9" r="5.7"/>
	<g>
		<line class="st3" x1="166" y1="17.3" x2="155.9" y2="22.4"/>
		<line class="st3" x1="163.5" y1="24.8" x2="158.4" y2="14.8"/>
	</g>
	<g>
		<g>
			<g>
				<path class="st4" d="M64.8,117c-0.3,0-0.5-0.1-0.7-0.2l-9.3-4.8c-0.1-0.1-0.2-0.1-0.3-0.2c-4.3-3.8-6.1-10.1-4.3-15.9l-11.1-9.5
					c-0.3-0.3-0.5-0.7-0.5-1.1c-0.1-0.4,0.1-0.8,0.4-1.2l18-20.9c0.3-0.3,0.7-0.5,1.1-0.5c0.1,0,0.1,0,0.1,0c0.4,0,0.8,0.2,1,0.4
					l11.2,9.6c0.1-0.1,0.2-0.1,0.2-0.1c0.2-0.1,0.4-0.2,0.7-0.3l9.8-3.6c0,0,0.1,0,0.1-0.1c0.8-0.3,1.6-0.4,2.5-0.4
					c1.8,0,3.3,0.6,4.7,1.7l8.6,7.4c3.1,2.6,3.4,7.3,0.8,10.4l-8.3,9.6c-0.8,0.9-1.9,1.6-3.1,1.9c0.1,0.1,0.1,0.1,0.1,0.1
					c0.3,0.5,0.2,1.2-0.2,1.7c-0.8,1-1.2,2.2-1.1,3.5c0.1,0.6-0.3,1.2-0.8,1.4c-0.3,0.2-0.5,0.3-0.9,0.3c-0.3,0-0.5-0.1-0.8-0.2
					c-0.8-0.4-1.6-0.6-2.5-0.6c-1.5,0-3,0.7-4,1.8c-0.9,1.1-1.4,2.5-1.2,4.1c0.1,0.5-0.2,1.1-0.6,1.4c-0.3,0.2-0.7,0.3-1,0.3
					c-0.2,0-0.4-0.1-0.5-0.1c-0.6-0.2-1.2-0.3-1.8-0.3c-1.5,0-3,0.7-4,1.9c-0.4,0.4-0.7,0.9-0.9,1.4c-0.2,0.4-0.5,0.7-0.9,0.9
					C65.2,117,65,117,64.8,117z"/>
				<path d="M58.2,64.3l11.4,9.9c0.2,0.2,0.4,0.3,0.7,0.3c0.4,0,0.9-0.3,1.7-0.6l9.8-3.6c0.7-0.2,1.3-0.3,2-0.3
					c1.3,0,2.6,0.4,3.6,1.3l8.6,7.4c2.4,2.1,2.7,5.7,0.6,8.1l-8.3,9.6c-0.9,1-2.2,1.6-3.5,1.6c-1,0-2.1-0.4-3-1.1
					c-1.9-1.6-2.1-4.5-0.5-6.5l4.5-5.2c0.4-0.5,0.4-1.2-0.1-1.6c-0.2-0.2-0.5-0.3-0.8-0.3c-0.3,0-0.7,0.1-0.9,0.4l-4.5,5.2
					c-2.5,2.9-2.1,7.2,0.7,9.7c1.3,1.1,2.9,1.6,4.5,1.6c0.1,0,0.2,0,0.3,0c-1,1.3-1.5,3-1.4,4.5c-1-0.5-2.1-0.8-3.3-0.8
					c-1.9,0-3.8,0.8-5.2,2.4c-1.3,1.5-1.8,3.5-1.6,5.3c-0.8-0.3-1.6-0.4-2.4-0.4c-1.9,0-3.8,0.8-5.2,2.4c-0.5,0.5-0.9,1.2-1.2,1.9
					l-9.3-4.8c-3.9-3.5-5.4-9.3-3.8-14.5c0.2-0.4,0-0.9-0.3-1.2l-11.2-9.6L58.2,64.3 M85,100.2L85,100.2 M58.2,61.2
					c-0.9,0-1.8,0.4-2.4,1.1l-18,20.9c-1.2,1.3-1,3.3,0.3,4.5l10.4,8.9c-1.4,6.1,0.5,12.5,5.1,16.5c0.2,0.2,0.4,0.3,0.7,0.4l9.3,4.8
					c0.4,0.2,1,0.4,1.5,0.4c0.4,0,0.8-0.1,1.1-0.2c0.8-0.3,1.5-0.9,1.9-1.8c0.2-0.4,0.4-0.7,0.6-1c0.7-0.9,1.7-1.3,2.8-1.3
					c0.4,0,0.8,0.1,1.2,0.2c0.4,0.2,0.8,0.2,1.2,0.2c0.7,0,1.4-0.2,2-0.7c0.9-0.7,1.4-1.8,1.2-2.9c-0.1-1,0.2-2.1,0.8-2.8
					c0.7-0.8,1.7-1.3,2.8-1.3c0.6,0,1.2,0.2,1.8,0.4c0.5,0.3,1,0.4,1.5,0.4c0.6,0,1.2-0.2,1.7-0.5c1-0.6,1.5-1.7,1.5-2.9
					c-0.1-0.8,0.2-1.6,0.7-2.4c0.4-0.5,0.7-1.2,0.7-1.9c0.9-0.4,1.8-1.1,2.5-1.9l8.3-9.6c3.2-3.7,2.8-9.4-0.9-12.6l-8.6-7.4
					c-1.6-1.4-3.6-2.1-5.7-2.1c-1,0-2,0.2-2.9,0.4c-0.1,0-0.1,0.1-0.2,0.1l-9.8,3.6c-0.1,0-0.1,0.1-0.1,0.1l-10.5-9
					C59.7,61.4,58.9,61.2,58.2,61.2L58.2,61.2z"/>
			</g>
			<g>
				<g>
					<path class="st5" d="M36.7,91.5c-1.4,0-2.7-0.5-3.8-1.4l-6-5.4c-0.3-0.3-0.5-0.7-0.5-1.1c0-0.4,0.1-0.8,0.4-1.2l27-30.1
						c0.3-0.3,0.7-0.5,1.1-0.5c0.1,0,0.1,0,0.1,0c0.4,0,0.8,0.2,1.1,0.4l9,8.1c0.7,0.6,0.7,1.6,0.1,2.2l-24.3,27
						C39.8,90.8,38.3,91.5,36.7,91.5z"/>
					<path d="M54.9,53.4l9,8.1L39.6,88.6c-0.8,0.9-1.9,1.3-3,1.3c-1,0-1.9-0.3-2.7-1l-6-5.4L54.9,53.4 M54.9,50.2
						c-0.1,0-0.1,0-0.2,0c-0.9,0.1-1.6,0.4-2.2,1l-27,30.1c-0.5,0.7-0.9,1.5-0.8,2.3c0.1,0.9,0.4,1.6,1,2.2l6,5.4
						c1.3,1.2,3.1,1.9,4.8,1.9c2,0,4-0.9,5.4-2.4l24.3-27c1.2-1.3,1.1-3.3-0.2-4.5l-9-8.1C56.5,50.5,55.8,50.2,54.9,50.2L54.9,50.2z
						"/>
				</g>
			</g>
		</g>
		<g>
			<path class="st4" d="M58.1,142.1c-3,0-5.8-1.2-7.8-3.2c-2.1-2.1-3.2-4.9-3.2-7.8s1.2-5.8,3.2-7.8L104,69.9
				c-2.2-7.2-1.5-11.2-1.3-12.7l0.1-0.3c1.6-10.2,9.4-18.6,19.3-20.9c2.1-0.5,4.2-0.8,6.3-0.8c2.1,0,4.1,0.3,6,0.8
				c0.5,0.2,1,0.6,1.2,1.2c0.2,0.5,0,1.2-0.4,1.5L121.8,52v15.7h15.7l13.3-13.3c0.3-0.3,0.7-0.5,1.2-0.5c0.2,0,0.3,0,0.4,0.1
				c0.5,0.2,1,0.6,1.1,1.2c0.9,4,0.9,8.2-0.1,12.3c-2.4,9.9-10.8,17.7-20.9,19.3l-0.2,0.1c-0.6,0.1-1.8,0.3-3.6,0.3
				c-2.8,0-5.9-0.5-9.3-1.5l-53.7,53.3C63.9,141,61.1,142.1,58.1,142.1z"/>
			<path d="M128.4,36.8c1.8,0,3.7,0.2,5.6,0.7l-13.8,13.8v18h18L152,55.6c0.9,3.8,0.9,7.7-0.1,11.6c-2.2,9.3-10.1,16.6-19.6,18.1
				c-0.4,0.1-1.6,0.3-3.5,0.3c-2.2,0-5.5-0.3-9.7-1.8l-54.4,53.9c-1.9,1.9-4.3,2.8-6.7,2.8c-2.4,0-4.8-0.9-6.7-2.8
				c-3.7-3.7-3.7-9.7,0-13.4l54.4-54c-2.6-7.9-1.6-11.9-1.4-13.2c1.5-9.5,8.8-17.4,18.1-19.6C124.1,37.2,126.1,36.8,128.4,36.8
				 M128.4,33.7L128.4,33.7c-2.2,0-4.5,0.3-6.7,0.8c-10.6,2.5-18.8,11.5-20.5,22.2c0,0.1,0,0.2-0.1,0.2c-0.3,1.6-1,5.6,1,12.5
				l-53,52.6c-2.4,2.4-3.7,5.6-3.7,9c0,3.4,1.3,6.6,3.7,8.9c2.4,2.4,5.6,3.7,8.9,3.7c3.4,0,6.6-1.3,8.9-3.7l53-52.6
				c3.1,0.9,6.1,1.3,8.8,1.3c1.9,0,3.2-0.2,3.8-0.3h0.2c10.8-1.7,19.7-10,22.2-20.5c1-4.4,1-8.8,0.1-13c-0.3-1.2-1.2-2-2.2-2.4
				c-0.3-0.1-0.6-0.1-0.9-0.1c-0.8,0-1.6,0.3-2.2,0.9L137,66.2h-13.5V52.6l12.8-12.8c0.8-0.8,1.2-2,0.8-3.1c-0.3-1.1-1.2-2-2.3-2.2
				C132.8,33.9,130.7,33.7,128.4,33.7L128.4,33.7z"/>
		</g>
		<g>
			<path class="st4" d="M107.5,110.6c-0.1,0-0.2,0-0.3,0c-0.3-0.1-0.5-0.1-0.8-0.2c-0.8-0.2-1.6-0.6-2.2-1.2l-9.9-8.5
				c-0.8-0.7-1.3-1.5-1.6-2.5l-0.2-0.7c0-0.1-0.1-0.1-0.1-0.1c-0.6-2.4,0.9-4.2,1.8-5.2c1.2-1.4,3-2.2,4.8-2.2c0.1,0,0.2,0,0.3,0
				c0.1,0,0.1,0,0.2,0c0.1,0,0.2,0,0.3,0c0.3,0.1,0.5,0.1,0.8,0.2c0.8,0.2,1.6,0.6,2.2,1.2l9.9,8.5c0.8,0.7,1.3,1.5,1.6,2.5l0.2,0.6
				v0.1c0.6,2.2-0.6,3.9-1.7,5.2c-1.2,1.4-3,2.2-4.8,2.2l0,0c-0.1,0-0.2,0-0.3,0C107.6,110.6,107.6,110.6,107.5,110.6z"/>
			<path d="M99.4,91.6c0.2,0.1,0.4,0.1,0.6,0.2c0.6,0.2,1.2,0.4,1.6,0.9l9.9,8.5c0.5,0.5,0.9,1.2,1.2,1.8l0.2,0.6
				c0.4,1.4-0.3,2.6-1.4,3.8c-0.9,1.1-2.2,1.6-3.5,1.6c-0.2,0-0.3,0-0.5,0v0.1c-0.2-0.1-0.4-0.1-0.6-0.2c-0.6-0.2-1.2-0.4-1.6-0.9
				l-9.9-8.5c-0.5-0.5-0.9-1.2-1.2-1.8L93.9,97c-0.4-1.4,0.3-2.5,1.4-3.7c0.9-1.1,2.2-1.6,3.5-1.6C99,91.6,99.2,91.6,99.4,91.6
				L99.4,91.6 M99.4,88.4c-0.1,0-0.2,0-0.3,0c-0.1,0-0.2,0-0.3,0c-2.3,0-4.4,1-6,2.7c-0.9,1-2.9,3.4-2.1,6.6c0,0.1,0.1,0.2,0.1,0.3
				l0.2,0.7c0.4,1.3,1.2,2.4,2.1,3.2l9.9,8.5c0.8,0.7,1.8,1.2,2.8,1.5c0.3,0.1,0.7,0.2,1,0.2c0.2,0.1,0.4,0.1,0.5,0.1
				c0.1,0,0.2,0,0.3,0s0.2,0,0.3,0c2.3,0,4.4-1,6-2.7c0.8-0.9,2.9-3.3,2-6.7c0-0.1-0.1-0.1-0.1-0.2l-0.2-0.6v-0.1
				c-0.4-1.3-1.2-2.4-2.1-3.2l-9.9-8.5c-0.8-0.7-1.8-1.2-2.8-1.5c-0.3-0.1-0.7-0.2-1-0.2C99.8,88.4,99.6,88.4,99.4,88.4L99.4,88.4z"
				/>
		</g>
		<g>
			<path class="st4" d="M79.3,131.9c-1.5,0-2.9-0.5-4.1-1.5l-8.6-7.4c-2.6-2.2-2.8-6.1-0.7-8.8c1.2-1.4,2.9-2.1,4.7-2.1
				c1.5,0,2.9,0.5,4.1,1.5l8.6,7.4c1.3,1.1,2,2.6,2.1,4.2c0.1,1.6-0.4,3.2-1.5,4.5C82.8,131.1,81.1,131.9,79.3,131.9z"/>
			<path d="M70.7,113.7c1,0,2.1,0.4,3,1.1l8.6,7.4c1.9,1.6,2.1,4.5,0.5,6.5c-0.9,1-2.2,1.6-3.5,1.6c-1,0-2.1-0.4-3-1.1l-8.6-7.3
				c-1.9-1.6-2.1-4.5-0.5-6.5C68.1,114.3,69.5,113.7,70.7,113.7 M70.7,110.5L70.7,110.5c-2.2,0-4.4,1-5.9,2.7
				c-2.8,3.2-2.5,8.2,0.8,11l8.6,7.4c1.4,1.2,3.2,1.9,5.1,1.9c2.2,0,4.4-1,5.9-2.7c1.4-1.6,2-3.6,1.9-5.6c-0.2-2.1-1.1-4-2.7-5.3
				l-8.6-7.5C74.4,111.2,72.6,110.5,70.7,110.5L70.7,110.5z"/>
		</g>
		<g>
			<path class="st4" d="M90.3,126.3c-1.5,0-2.9-0.5-4.1-1.5l-10.4-9c-1.3-1.1-2-2.6-2.1-4.2c-0.1-1.6,0.4-3.2,1.5-4.5
				c1.2-1.4,2.9-2.1,4.7-2.1c1.5,0,2.9,0.5,4.1,1.5l10.4,9c2.6,2.2,2.8,6.1,0.7,8.8C93.8,125.4,92.1,126.3,90.3,126.3z"/>
			<path d="M79.9,106.5c1,0,2.1,0.4,3,1.1l10.4,9c1.9,1.6,2.1,4.5,0.5,6.5c-0.9,1-2.2,1.6-3.5,1.6c-1,0-2.1-0.4-3-1.1l-10.4-9
				c-1.9-1.6-2.1-4.5-0.5-6.5C77.3,107,78.6,106.5,79.9,106.5 M79.9,103.3L79.9,103.3c-2.2,0-4.4,1-5.9,2.7c-1.4,1.6-2,3.6-1.9,5.6
				c0.2,2.1,1.1,4,2.7,5.3l10.4,9c1.4,1.2,3.2,1.9,5.1,1.9c2.2,0,4.4-1,5.9-2.7c1.4-1.6,2-3.6,1.9-5.6c-0.2-2.1-1.1-4-2.7-5.3
				l-10.4-9C83.6,104,81.8,103.3,79.9,103.3L79.9,103.3z"/>
		</g>
		<g>
			<path class="st4" d="M101.3,120.6c-1.5,0-2.9-0.5-4.1-1.5l-11.3-9.8c-1.3-1.1-2-2.6-2.1-4.2c-0.1-1.6,0.4-3.2,1.5-4.5
				c1.2-1.4,2.9-2.1,4.7-2.1c1.5,0,2.9,0.5,4.1,1.5l11.3,9.8c1.3,1.1,2,2.6,2.1,4.2c0.1,1.6-0.4,3.2-1.5,4.5
				C104.8,119.8,103.1,120.6,101.3,120.6z"/>
			<path d="M90,100c1,0,2.1,0.4,3,1.1l11.3,9.8c1.9,1.6,2.1,4.5,0.5,6.5c-0.9,1-2.2,1.6-3.5,1.6c-1,0-2.1-0.4-3-1.1L87,108.1
				c-1.9-1.6-2.1-4.5-0.5-6.5C87.4,100.6,88.7,100,90,100 M90,96.8L90,96.8c-2.2,0-4.4,1-5.9,2.7c-2.8,3.2-2.5,8.2,0.8,11l11.3,9.8
				c1.4,1.2,3.2,1.9,5.1,1.9c2.2,0,4.4-1,5.9-2.7c1.4-1.6,2-3.6,1.9-5.6c-0.2-2.1-1.1-4-2.7-5.3l-11.3-9.8
				C93.7,97.5,91.9,96.8,90,96.8L90,96.8z"/>
		</g>
		<g>
			<path class="st6" d="M93.3,74.5c2.4,2.1,2.7,5.7,0.6,8.1l-8.3,9.5c-1.6,1.9-4.5,2.1-6.5,0.5c-1.9-1.6-2.1-4.5-0.5-6.5l4.5-5.2
				c0.4-0.5,0.4-1.2-0.1-1.6"/>
		</g>
	</g>
</g>
</svg>
